<?xml version="1.0" standalone="no"?>
<!DOCTYPE svg PUBLIC "-//W3C//DTD SVG 20010904//EN"
 "http://www.w3.org/TR/2001/REC-SVG-20010904/DTD/svg10.dtd">
<svg version="1.0" xmlns="http://www.w3.org/2000/svg"
 width="260.000000pt" height="260.000000pt" viewBox="0 0 260.000000 260.000000"
 preserveAspectRatio="xMidYMid meet">
<metadata>
Created by potrace 1.11, written by Peter Selinger 2001-2013
</metadata>
<g transform="translate(0.000000,260.000000) scale(0.100000,-0.100000)"
fill="#000000" stroke="none">
<path d="M1966 2442 c-28 -15 -55 -31 -60 -35 -29 -22 -436 -254 -436 -248 0
3 -4 1 -8 -5 -6 -10 -45 -33 -132 -80 -19 -11 -37 -22 -40 -25 -3 -4 -32 -21
-64 -38 -33 -17 -64 -35 -70 -40 -6 -4 -36 -22 -66 -38 -92 -50 -253 -145
-282 -165 -16 -11 -28 -16 -28 -13 0 4 -7 0 -15 -9 -41 -41 -20 -54 224 -132
167 -54 152 -42 192 -148 10 -27 16 -52 14 -57 -3 -4 -2 -9 2 -11 5 -1 23 -50
42 -108 39 -120 65 -165 88 -152 13 8 67 74 128 158 11 15 25 33 32 39 7 7 9
15 6 19 -4 3 -1 6 5 6 6 0 13 9 17 19 7 24 31 33 53 22 9 -5 46 -21 82 -36 36
-15 88 -38 116 -51 53 -23 93 -23 95 2 2 16 6 33 9 37 1 1 3 16 5 32 4 30 8
53 19 109 4 25 19 110 21 126 0 3 3 10 6 15 3 6 5 25 4 43 -1 17 2 32 6 32 4
0 7 8 7 18 -1 9 4 43 10 75 7 32 11 61 11 65 -1 4 0 9 1 12 4 10 10 46 15 80
2 19 5 35 5 35 1 0 4 16 7 35 2 19 9 41 15 47 6 8 7 13 1 13 -6 0 -5 21 3 52
8 29 17 73 20 98 3 25 8 54 10 65 23 120 25 137 13 151 -16 19 -26 18 -83 -14z
m-462 -490 l-329 -329 -45 14 c-25 8 -52 17 -60 20 -8 4 -17 7 -20 8 -55 13
-178 61 -173 66 15 13 252 149 262 149 5 0 11 4 13 8 2 4 55 37 118 72 63 35
117 67 120 70 3 4 10 9 15 11 26 10 390 224 393 231 2 5 8 6 13 2 5 -3 9 0 9
7 0 7 3 9 6 6 4 -4 -141 -155 -322 -335z m451 280 c-5 -37 -10 -62 -20 -112
-2 -14 -7 -41 -10 -60 -5 -32 -25 -143 -41 -230 -7 -39 -11 -61 -18 -105 -10
-64 -18 -108 -22 -129 -8 -34 -12 -59 -19 -101 -14 -99 -18 -115 -27 -115 -14
0 -163 64 -169 73 -3 4 -10 7 -15 6 -5 -2 -27 6 -49 16 -22 10 -42 19 -45 20
-3 0 -24 10 -47 20 l-42 20 104 145 c57 80 108 150 114 157 6 7 11 17 11 23 0
5 3 10 8 10 4 0 23 25 42 55 19 30 38 55 43 55 4 0 7 6 7 14 0 8 3 16 8 18 4
2 30 35 57 73 27 39 54 73 59 77 6 4 7 8 3 8 -5 0 -2 6 5 13 7 7 24 30 38 50
14 20 26 37 28 37 2 0 0 -17 -3 -38z m-221 -154 c-18 -29 -57 -84 -214 -302
-91 -125 -170 -238 -177 -250 -12 -21 -22 -69 -27 -118 -1 -15 -5 -31 -9 -34
-4 -4 -7 -17 -7 -28 -1 -12 -12 13 -26 54 -14 41 -28 82 -31 90 -8 19 -8 20
-17 53 -8 26 6 42 250 287 143 143 260 260 262 260 2 0 0 -6 -4 -12z m-275
-633 c11 -11 9 -19 -15 -52 -16 -21 -32 -39 -36 -41 -5 -2 -8 -10 -8 -18 0 -8
-4 -14 -10 -14 -5 0 -10 -8 -10 -17 0 -15 -2 -16 -9 -3 -6 8 -8 17 -6 20 2 3
6 23 9 44 8 47 17 88 23 99 6 10 44 -1 62 -18z"/>
<path d="M457 1139 c-29 -17 -19 -43 30 -74 65 -42 87 -47 102 -23 10 15 8 22
-13 41 -43 40 -99 67 -119 56z"/>
<path d="M1040 1091 c-37 -19 -50 -51 -28 -68 10 -8 25 -5 58 10 35 17 46 28
48 50 3 23 0 27 -20 27 -13 0 -39 -8 -58 -19z"/>
<path d="M685 1024 c-31 -32 0 -54 82 -60 50 -3 83 11 83 35 0 30 -139 50
-165 25z"/>
<path d="M1850 883 c-14 -9 -31 -25 -38 -35 -11 -15 -17 -16 -34 -7 -16 9 -19
8 -13 -2 6 -8 4 -10 -6 -4 -18 12 -167 14 -196 3 -14 -4 -23 -4 -23 3 0 6 -5
7 -12 2 -7 -4 -15 -8 -18 -8 -42 -3 -105 -33 -125 -59 -43 -57 -15 -153 36
-125 15 8 18 17 13 47 -7 44 2 55 60 70 l38 11 -5 -72 c-4 -40 -6 -73 -7 -74
0 -2 -11 -3 -25 -3 -25 0 -46 -26 -38 -47 3 -7 13 -13 24 -13 27 0 34 -24 20
-70 -22 -73 -76 -89 -130 -40 -24 23 -36 28 -46 20 -40 -33 27 -101 105 -105
79 -4 131 41 151 131 7 30 17 55 23 55 6 1 27 3 46 4 19 1 42 3 51 4 19 1 30
32 18 52 -5 11 -23 14 -62 13 l-55 -3 2 37 c2 20 3 54 4 74 l2 37 68 -3 c37
-3 73 -5 80 -5 8 -1 11 -11 8 -28 -2 -16 -5 -28 -6 -28 -2 0 -4 -11 -18 -86
-21 -111 7 -231 57 -245 35 -10 73 -5 92 12 12 11 18 11 35 0 40 -27 53 -26
85 5 28 27 30 28 23 7 -3 -12 -18 -31 -33 -43 -109 -86 -153 -190 -92 -222 36
-20 65 -15 93 15 25 26 55 85 64 127 18 81 20 84 82 129 34 25 62 53 62 61 0
23 -27 29 -45 12 -8 -9 -24 -19 -35 -22 -11 -3 -20 -11 -20 -16 0 -5 -5 -9
-11 -9 -5 0 -7 6 -3 12 5 7 9 19 10 28 2 22 16 113 19 132 4 18 -17 30 -39 22
-15 -6 -26 -26 -33 -57 -5 -28 -42 -105 -53 -112 -21 -13 -26 6 -17 60 6 30
13 55 17 55 14 0 -2 49 -18 55 -21 8 -54 -26 -55 -59 -1 -14 -4 -26 -7 -26 -3
0 -6 -17 -8 -38 -3 -43 -34 -73 -72 -70 -32 4 -37 30 -11 66 26 38 90 165 94
189 1 10 5 23 8 28 4 6 7 36 8 67 2 50 -1 61 -23 83 -30 30 -34 30 -66 8z m35
-91 c-2 -46 -30 -143 -56 -191 -20 -38 -22 -36 -19 18 2 34 3 44 16 106 19
100 63 148 59 67z m114 -529 c-24 -75 -59 -104 -59 -50 0 22 58 102 67 93 3
-2 -1 -22 -8 -43z"/>
<path d="M1085 826 c-18 -20 -39 -53 -45 -73 -6 -21 -14 -45 -18 -53 -6 -16
-9 -28 -11 -47 0 -7 -12 -13 -25 -13 -31 0 -43 -30 -20 -47 10 -7 21 -13 26
-13 4 0 8 -18 8 -40 0 -48 -32 -82 -93 -102 -32 -10 -40 -9 -53 4 -14 14 -13
17 16 27 47 16 80 56 80 95 0 51 -33 73 -102 67 -21 -1 -78 -58 -78 -77 0 -8
-4 -14 -8 -14 -13 0 -7 -72 9 -104 8 -16 23 -34 34 -40 11 -6 22 -13 25 -16 8
-8 74 -6 88 3 6 5 12 5 12 2 0 -3 20 8 44 24 34 24 45 27 49 16 9 -21 49 -44
85 -49 48 -5 111 39 134 95 12 31 -22 30 -55 -1 -37 -35 -79 -39 -100 -10 -15
21 -23 119 -10 121 4 0 29 2 55 3 26 1 52 6 58 12 18 18 0 43 -32 46 -29 3
-29 3 -10 23 19 21 49 100 46 123 -1 6 -2 18 -3 25 -3 23 -18 38 -45 43 -22 4
-35 -2 -61 -30z m55 -44 c0 -32 -18 -82 -40 -109 l-22 -28 7 45 c8 55 30 110
44 110 6 0 11 -8 11 -18z m-252 -227 c2 -14 -7 -26 -27 -38 -16 -9 -31 -17
-34 -17 -4 0 -3 21 2 38 1 1 1 4 1 7 0 3 5 12 12 20 18 20 42 14 46 -10z"/>
<path d="M535 837 c-8 -4 -19 -6 -24 -2 -5 3 -12 1 -16 -5 -3 -5 -13 -10 -21
-10 -8 0 -29 -13 -46 -29 -25 -23 -31 -37 -32 -74 -1 -56 25 -92 56 -76 16 9
18 17 13 47 -11 67 15 84 135 86 74 1 71 5 57 -99 -7 -49 -8 -51 -65 -78 -49
-23 -155 -107 -136 -107 4 0 1 -6 -5 -13 -27 -33 -19 -101 16 -135 39 -39 135
-19 170 36 10 15 20 29 24 32 7 6 50 127 55 155 1 11 5 31 8 45 4 14 8 45 11
70 8 70 10 76 28 95 10 9 16 22 14 28 -6 18 -66 47 -72 36 -4 -5 -12 -6 -18
-2 -17 10 -134 11 -152 0z m95 -312 c-5 -14 -8 -25 -5 -25 11 0 -30 -78 -52
-98 -35 -32 -57 -25 -61 19 -3 40 19 72 81 115 38 26 50 22 37 -11z"/>
</g>
</svg>
